<svg xmlns="http://www.w3.org/2000/svg" xmlns:xlink="http://www.w3.org/1999/xlink" version="1.1" id="Layer_1" x="0px" y="0px" viewBox="60 100 280 320" style="enable-background:new 0 0 408.33 488.54;/* background: antiquewhite; */" xml:space="preserve">
<style type="text/css">
	.st0{fill:#10069F;}
</style>
<path class="st0" d="M203.18,155.75h-59.65v3.55c8.57,2.54,12.69,9.02,12.9,20.31c-0.01,0.81-0.01,27.35-0.01,58.95  c12.16-2.15,21.35-5.76,25.38-7.75v-60.74l30.4,0C209.87,163.57,205.26,157.7,203.18,155.75z"/>
<path class="st0" d="M198.98,297.98c-1.04-3.89-3.61-9.24-5.24-12.06c-2.87,0.15-6.67,0.26-9.72,0.31l-2.22,0.04v-19.83  c-5.83,1.74-19.3,3.64-25.38,4.43c0.01,52.22,0.03,108.47,0.03,109.52l0,0.1c-0.48,10.69-4.6,17.16-12.57,19.73v3.62h50.65v-3.62  c-8.24-2.65-12.58-9.47-12.58-19.82l-0.15-82.02h2.19C188.75,298.37,194.29,298.24,198.98,297.98z"/>
<path class="st0" d="M259.45,177.84c1.24,0.59,3.11,1.82,4.05,2.48c12.44,8.85,19.29,23.09,19.29,40.11  c0,14.67-5.44,44.27-48.87,58.7c2.79,4.92,4.76,10.03,5.9,12.8c1.02-0.15,2.6-0.51,3.24-0.68l1.35-0.35l0.89,1.07  c15.6,18.77,27.72,47.96,31.63,76.18c0.01,0.1,1.4,13.53,1.44,18.39l0,0.8c0,0.31-0.01,0.61-0.02,0.91l-0.01,0.41  c-0.2,3.94-1.34,9.28-8.57,11.61v3.57h52.2v-3.52c-4.63-1.4-13.82-6.15-17.78-22.13l-0.59-2.41c-2.93-12.03-4.55-18.65-6.64-25.08  c-4.97-15.23-15.93-43.79-33.43-63.87l-1.86-2.13l2.53-1.26c0.56-0.28,1.06-0.49,1.55-0.71c0.43-0.19,0.87-0.37,1.35-0.61  c26.87-13.7,41.66-35.7,41.66-61.96c0.27-19.36-11.13-39.23-27.54-50.42c-7.1-4.78-16.58-9.72-27.06-11.5  C257.4,165.55,258.98,173.08,259.45,177.84z"/>
<path class="st0" d="M222.6,134.34c16.41,11.19,27.81,31.07,27.54,50.42c0,26.27-14.8,48.26-41.66,61.96  c-0.48,0.24-0.92,0.43-1.35,0.61c-0.5,0.21-0.99,0.42-1.55,0.71l-2.53,1.26l1.86,2.13c17.5,20.09,28.45,48.64,33.43,63.87  c2.1,6.42,3.71,13.05,6.64,25.08l0.59,2.41c3.95,15.98,13.14,20.73,17.77,22.13v3.52h-52.2v-3.57c7.23-2.32,8.37-7.67,8.57-11.61  l0.01-0.41c0.01-0.3,0.02-0.6,0.02-0.91l0-0.8c-0.04-4.86-1.42-18.29-1.44-18.39c-3.91-28.22-16.03-57.4-31.63-76.18l-0.89-1.07  l-1.35,0.35c-17.79,4.66-38.21,7.12-59.07,7.12h-2.19l0.15,82.02c0,10.35,4.34,17.17,12.58,19.82v3.62H85.25v-3.62  c7.98-2.57,12.1-9.04,12.57-19.73l0-0.1c0-1.98-0.06-198.46-0.02-200.78c-0.22-11.29-4.33-17.77-12.9-20.31v-3.55h84.12  C193.65,120.37,209.75,125.69,222.6,134.34z M224.17,185.05c0-17.02-6.85-31.27-19.29-40.11c-9.52-6.72-21.33-9.98-37.16-10.25  l-44.54,0v116.21l2.22-0.04C214.54,249.33,224.17,204.33,224.17,185.05z"/>
</svg>